# xmcd
#
# Track frame offsets:
# 150
# 16372
# 30937
# 40365
# 52357
# 67132
# 77800
# 89672
# 102550
# 118895
# 129905
# 140442
# 152792
# 168175
# 178150
# 188742
# 200870
#
# Disc length: 2806 seconds
#
#
# Revision: 1
# Processed by: cddbd v1.5.2PL0 Copyright (c) Steve Scherf et al.
# Submitted via: FreeRIP 2.96 
#
DISCID=fb0af411
DTITLE=The Rimshots - Everybody Bop Now... Let's Bop!!!
DYEAR=1996
DGENRE=Rock and Roll
TTITLE0=Ramblin' Man
TTITLE1=Hobo Blues
TTITLE2=Lets Bop
TTITLE3=Crazy Fool
TTITLE4=Early Morning Blues
TTITLE5=Yoe Saved My Heart
TTITLE6=Oklahoma Hills
TTITLE7=One More Beer
TTITLE8=Crazy Bout My Baby
TTITLE9=Wide Open Road
TTITLE10=Troubles
TTITLE11=Cryin' Early Morning
TTITLE12=My Way Or The Highway
TTITLE13=That's OK
TTITLE14=Swamp Gal
TTITLE15=Honey Babe
TTITLE16=Yonder Comes A Sucker
EXTD=
EXTT0=
EXTT1=
EXTT2=
EXTT3=
EXTT4=
EXTT5=
EXTT6=
EXTT7=
EXTT8=
EXTT9=
EXTT10=
EXTT11=
EXTT12=
EXTT13=
EXTT14=
EXTT15=
EXTT16=
PLAYORDER=
